<svg width="3299" height="997" xmlns="http://www.w3.org/2000/svg" xmlns:xlink="http://www.w3.org/1999/xlink" xml:space="preserve" overflow="hidden"><g transform="translate(-101 0)"><text fill="#2469A0" font-family="Montserrat,Montserrat_MSFontService,sans-serif" font-weight="700" font-size="225" transform="matrix(1 0 0 1 1124.31 573)">GenomeAs</text><text fill="#2469A0" font-family="Montserrat,Montserrat_MSFontService,sans-serif" font-weight="700" font-size="225" transform="matrix(1 0 0 1 2409.93 573)">s</text><text fill="#2469A0" font-family="Montserrat,Montserrat_MSFontService,sans-serif" font-weight="700" font-size="225" transform="matrix(1 0 0 1 2529.1 573)">istant</text><text fill="#2469A0" font-family="Montserrat,Montserrat_MSFontService,sans-serif" font-weight="700" font-size="225" transform="matrix(1 0 0 1 3201.13 573)"> </text><path d="M0 0 0.000360892 990" stroke="#2469A0" stroke-width="13.75" stroke-miterlimit="8" fill="none" fill-rule="evenodd" transform="matrix(-1 0 0 1 1006 0)"/><g><g><g><path d="M868.241 257.826 868.241 257.826C858.947 267.12 843.898 267.12 834.604 257.826L766.444 189.666C746.97 229.499 748.076 275.308 749.183 329.747 750.289 375.999 751.396 424.021 739.667 474.698 725.946 534.006 696.514 585.347 650.041 632.041 603.568 678.513 552.006 707.946 492.698 721.667 441.799 733.395 393.999 732.289 347.748 731.182 293.53 729.855 247.721 728.748 207.666 748.444L275.826 816.604C285.12 825.898 285.12 840.946 275.826 850.241 266.531 859.535 251.483 859.535 242.188 850.241L168.496 776.549C153.89 791.154 130.211 791.154 115.606 776.549 101 761.943 101 738.264 115.606 723.658 186.864 652.4 269.629 654.392 349.518 656.384 392.893 657.49 434.939 658.375 476.543 648.638L339.338 511.433C330.044 502.139 330.044 487.091 339.338 477.796 348.633 468.501 363.681 468.501 372.976 477.796L526.114 630.934C543.818 622.304 561.743 610.575 579.447 595.305L402.187 418.045C392.893 408.751 392.893 393.703 402.187 384.408L402.187 384.408C411.482 375.114 426.53 375.114 435.824 384.408L613.084 561.668C628.354 543.964 639.861 526.26 648.713 508.335L495.575 355.197C486.28 345.902 486.28 330.854 495.575 321.559 504.869 312.265 519.918 312.265 529.212 321.559L666.417 458.764C676.154 417.16 675.269 375.114 674.163 331.739 672.171 251.85 670.179 169.085 741.437 97.8268 756.043 83.2211 779.722 83.2211 794.328 97.8268 808.933 112.433 808.933 136.111 794.328 150.717L868.241 223.967C877.536 233.261 877.536 248.31 868.241 257.826Z" fill="#3DD6AF"/><path d="M911.394 267.341C840.136 338.599 757.371 336.608 677.482 334.616 592.061 332.624 511.287 330.633 430.071 411.849 348.854 493.066 350.846 573.839 352.838 659.261 354.829 739.149 356.821 821.915 285.563 893.173 270.957 907.779 247.278 907.779 232.673 893.173 218.067 878.567 218.067 854.888 232.673 840.283 281.358 791.597 279.809 734.059 278.039 661.031 276.932 614.78 275.826 566.758 287.555 516.081 301.275 456.773 330.708 405.431 377.18 358.738 423.653 312.044 475.215 282.832 534.523 269.112 585.422 257.383 633.222 258.489 679.474 259.596 752.502 261.366 810.04 262.694 858.725 214.23 873.331 199.624 897.01 199.624 911.616 214.23 926 229.057 926 252.736 911.394 267.341Z" fill="#10BCE3"/><path d="M819.556 242.777C833.276 236.138 846.333 226.844 858.725 214.451 858.725 214.451 858.725 214.451 858.725 214.451L868.241 223.967C877.536 233.261 877.536 248.31 868.241 257.604L868.241 257.604C858.947 266.899 843.898 266.899 834.604 257.604L819.556 242.777ZM260.999 801.334C254.36 815.055 245.065 828.111 232.673 840.504 232.673 840.504 232.673 840.504 232.673 840.504L242.188 850.02C251.483 859.314 266.531 859.314 275.826 850.02L275.826 850.02C285.12 840.725 285.12 825.677 275.826 816.382L260.999 801.334ZM373.197 477.353C363.902 468.059 348.854 468.059 339.56 477.353 330.265 486.648 330.265 501.696 339.56 510.991L360.804 532.235C364.788 515.638 370.32 499.041 378.508 482.665L373.197 477.353ZM436.046 384.187C426.751 374.892 411.703 374.892 402.408 384.187 393.114 393.481 393.114 408.53 402.408 417.824L413.916 429.332C419.006 423.578 424.317 417.603 430.071 411.849 435.824 406.095 441.799 400.563 447.553 395.694L436.046 384.187ZM529.434 321.338C520.139 312.044 505.091 312.044 495.796 321.338L495.796 321.338C486.502 330.633 486.502 345.681 495.796 354.975L500.886 360.065C517.483 351.877 533.859 346.345 550.457 342.361L529.434 321.338Z" fill="#2469A0"/></g></g></g></g></svg>